<svg width="1440" height="889" viewBox="0 0 1440 889" fill="none" xmlns="http://www.w3.org/2000/svg">
<path d="M117.912 21.3991L57.8221 81.4895L-2.26831 21.3991L18.4021 0.745117L57.8221 40.1815L97.2585 0.745117L117.912 21.3991Z" fill="#FFF9EB"/>
<path d="M117.912 102.144L57.8221 162.251L-2.26831 102.144L18.4021 81.4902L57.8221 120.927L97.2585 81.4902L117.912 102.144Z" fill="#FFF9EB"/>
<path d="M117.912 182.905L57.8221 242.995L-2.26831 182.905L18.4021 162.25L57.8221 201.687L97.2585 162.25L117.912 182.905Z" fill="#FFF9EB"/>
<path d="M117.912 263.649L57.8221 323.739L-2.26831 263.649L18.4021 242.995L57.8221 282.431L97.2585 242.995L117.912 263.649Z" fill="#FFF9EB"/>
<path d="M117.912 344.393L57.8221 404.5L-2.26831 344.393L18.4021 323.739L57.8221 363.176L97.2585 323.739L117.912 344.393Z" fill="#FFF9EB"/>
<path d="M117.912 425.154L57.8221 485.244L-2.26831 425.154L18.4021 404.5L57.8221 443.936L97.2585 404.5L117.912 425.154Z" fill="#FFF9EB"/>
<path d="M117.912 505.899L57.8221 565.989L-2.26831 505.899L18.4021 485.245L57.8221 524.681L97.2585 485.245L117.912 505.899Z" fill="#FFF9EB"/>
<path d="M117.912 586.66L57.8221 646.75L-2.26831 586.66L18.4021 565.989L57.8221 605.426L97.2585 565.989L117.912 586.66Z" fill="#FFF9EB"/>
<path d="M117.912 667.404L57.8221 727.494L-2.26831 667.404L18.4021 646.75L57.8221 686.186L97.2585 646.75L117.912 667.404Z" fill="#FFF9EB"/>
<path d="M117.912 748.148L57.8221 808.239L-2.26831 748.148L18.4021 727.494L57.8221 766.931L97.2585 727.494L117.912 748.148Z" fill="#FFF9EB"/>
<path d="M117.912 828.909L57.8221 889L-2.26831 828.909L18.4021 808.239L57.8221 847.675L97.2585 808.239L117.912 828.909Z" fill="#FFF9EB"/>
<path d="M238.11 868.346L178.019 808.239L117.912 868.346L138.583 889L178.019 849.563L217.456 889L238.11 868.346Z" fill="#FFF9EB"/>
<path d="M238.11 787.585L178.019 727.494L117.912 787.585L138.583 808.239L178.019 768.819L217.456 808.239L238.11 787.585Z" fill="#FFF9EB"/>
<path d="M238.11 706.84L178.019 646.75L117.912 706.84L138.583 727.494L178.019 688.058L217.456 727.494L238.11 706.84Z" fill="#FFF9EB"/>
<path d="M238.11 626.096L178.019 565.989L117.912 626.096L138.583 646.75L178.019 607.314L217.456 646.75L238.11 626.096Z" fill="#FFF9EB"/>
<path d="M238.11 545.335L178.019 485.245L117.912 545.335L138.583 565.989L178.019 526.569L217.456 565.989L238.11 545.335Z" fill="#FFF9EB"/>
<path d="M238.11 464.59L178.019 404.5L117.912 464.59L138.583 485.244L178.019 445.808L217.456 485.244L238.11 464.59Z" fill="#FFF9EB"/>
<path d="M238.11 383.846L178.019 323.739L117.912 383.846L138.583 404.5L178.019 365.064L217.456 404.5L238.11 383.846Z" fill="#FFF9EB"/>
<path d="M238.11 303.085L178.019 242.995L117.912 303.085L138.583 323.739L178.019 284.319L217.456 323.739L238.11 303.085Z" fill="#FFF9EB"/>
<path d="M238.11 222.341L178.019 162.25L117.912 222.341L138.583 242.995L178.019 203.559L217.456 242.995L238.11 222.341Z" fill="#FFF9EB"/>
<path d="M238.11 141.597L178.019 81.4902L117.912 141.597L138.583 162.251L178.019 122.815L217.456 162.251L238.11 141.597Z" fill="#FFF9EB"/>
<path d="M238.11 60.8355L178.019 0.745117L117.912 60.8355L138.583 81.4895L178.019 42.0696L217.456 81.4895L238.11 60.8355Z" fill="#FFF9EB"/>
<path d="M358.307 21.3991L298.2 81.4895L238.11 21.3991L258.764 0.745117L298.2 40.1815L337.636 0.745117L358.307 21.3991Z" fill="#FFF9EB"/>
<path d="M358.307 102.144L298.2 162.251L238.11 102.144L258.764 81.4902L298.2 120.927L337.636 81.4902L358.307 102.144Z" fill="#FFF9EB"/>
<path d="M358.307 182.905L298.2 242.995L238.11 182.905L258.764 162.25L298.2 201.687L337.636 162.25L358.307 182.905Z" fill="#FFF9EB"/>
<path d="M358.307 263.649L298.2 323.739L238.11 263.649L258.764 242.995L298.2 282.431L337.636 242.995L358.307 263.649Z" fill="#FFF9EB"/>
<path d="M358.307 344.393L298.2 404.5L238.11 344.393L258.764 323.739L298.2 363.176L337.636 323.739L358.307 344.393Z" fill="#FFF9EB"/>
<path d="M358.307 425.154L298.2 485.244L238.11 425.154L258.764 404.5L298.2 443.936L337.636 404.5L358.307 425.154Z" fill="#FFF9EB"/>
<path d="M358.307 505.899L298.2 565.989L238.11 505.899L258.764 485.245L298.2 524.681L337.636 485.245L358.307 505.899Z" fill="#FFF9EB"/>
<path d="M358.307 586.66L298.2 646.75L238.11 586.66L258.764 565.989L298.2 605.426L337.636 565.989L358.307 586.66Z" fill="#FFF9EB"/>
<path d="M358.307 667.404L298.2 727.494L238.11 667.404L258.764 646.75L298.2 686.186L337.636 646.75L358.307 667.404Z" fill="#FFF9EB"/>
<path d="M358.307 748.148L298.2 808.239L238.11 748.148L258.764 727.494L298.2 766.931L337.636 727.494L358.307 748.148Z" fill="#FFF9EB"/>
<path d="M358.307 828.909L298.2 889L238.11 828.909L258.764 808.239L298.2 847.675L337.636 808.239L358.307 828.909Z" fill="#FFF9EB"/>
<path d="M478.488 868.346L418.398 808.239L358.307 868.346L378.961 889L418.398 849.563L457.834 889L478.488 868.346Z" fill="#FFF9EB"/>
<path d="M478.488 787.585L418.398 727.494L358.307 787.585L378.961 808.239L418.398 768.819L457.834 808.239L478.488 787.585Z" fill="#FFF9EB"/>
<path d="M478.488 706.84L418.398 646.75L358.307 706.84L378.961 727.494L418.398 688.058L457.834 727.494L478.488 706.84Z" fill="#FFF9EB"/>
<path d="M478.488 626.096L418.398 565.989L358.307 626.096L378.961 646.75L418.398 607.314L457.834 646.75L478.488 626.096Z" fill="#FFF9EB"/>
<path d="M478.488 545.335L418.398 485.245L358.307 545.335L378.961 565.989L418.398 526.569L457.834 565.989L478.488 545.335Z" fill="#FFF9EB"/>
<path d="M478.488 464.59L418.398 404.5L358.307 464.59L378.961 485.244L418.398 445.808L457.834 485.244L478.488 464.59Z" fill="#FFF9EB"/>
<path d="M478.488 383.846L418.398 323.739L358.307 383.846L378.961 404.5L418.398 365.064L457.834 404.5L478.488 383.846Z" fill="#FFF9EB"/>
<path d="M478.488 303.085L418.398 242.995L358.307 303.085L378.961 323.739L418.398 284.319L457.834 323.739L478.488 303.085Z" fill="#FFF9EB"/>
<path d="M478.488 222.341L418.398 162.25L358.307 222.341L378.961 242.995L418.398 203.559L457.834 242.995L478.488 222.341Z" fill="#FFF9EB"/>
<path d="M478.488 141.597L418.398 81.4902L358.307 141.597L378.961 162.251L418.398 122.815L457.834 162.251L478.488 141.597Z" fill="#FFF9EB"/>
<path d="M478.488 60.8355L418.398 0.745117L358.307 60.8355L378.961 81.4895L418.398 42.0696L457.834 81.4895L478.488 60.8355Z" fill="#FFF9EB"/>
<path d="M598.669 21.3991L538.578 81.4895L478.488 21.3991L499.142 0.745117L538.578 40.1815L578.015 0.745117L598.669 21.3991Z" fill="#FFF9EB"/>
<path d="M598.669 102.144L538.578 162.251L478.488 102.144L499.142 81.4902L538.578 120.927L578.015 81.4902L598.669 102.144Z" fill="#FFF9EB"/>
<path d="M598.669 182.905L538.578 242.995L478.488 182.905L499.142 162.25L538.578 201.687L578.015 162.25L598.669 182.905Z" fill="#FFF9EB"/>
<path d="M598.669 263.649L538.578 323.739L478.488 263.649L499.142 242.995L538.578 282.431L578.015 242.995L598.669 263.649Z" fill="#FFF9EB"/>
<path d="M598.669 344.393L538.578 404.5L478.488 344.393L499.142 323.739L538.578 363.176L578.015 323.739L598.669 344.393Z" fill="#FFF9EB"/>
<path d="M598.669 425.154L538.578 485.244L478.488 425.154L499.142 404.5L538.578 443.936L578.015 404.5L598.669 425.154Z" fill="#FFF9EB"/>
<path d="M598.669 505.899L538.578 565.989L478.488 505.899L499.142 485.245L538.578 524.681L578.015 485.245L598.669 505.899Z" fill="#FFF9EB"/>
<path d="M598.669 586.66L538.578 646.75L478.488 586.66L499.142 565.989L538.578 605.426L578.015 565.989L598.669 586.66Z" fill="#FFF9EB"/>
<path d="M598.669 667.404L538.578 727.494L478.488 667.404L499.142 646.75L538.578 686.186L578.015 646.75L598.669 667.404Z" fill="#FFF9EB"/>
<path d="M598.669 748.148L538.578 808.239L478.488 748.148L499.142 727.494L538.578 766.931L578.015 727.494L598.669 748.148Z" fill="#FFF9EB"/>
<path d="M598.669 828.909L538.578 889L478.488 828.909L499.142 808.239L538.578 847.675L578.015 808.239L598.669 828.909Z" fill="#FFF9EB"/>
<path d="M718.866 868.346L658.775 808.239L598.668 868.346L619.339 889L658.775 849.563L698.212 889L718.866 868.346Z" fill="#FFF9EB"/>
<path d="M718.866 787.585L658.775 727.494L598.668 787.585L619.339 808.239L658.775 768.819L698.212 808.239L718.866 787.585Z" fill="#FFF9EB"/>
<path d="M718.866 706.84L658.775 646.75L598.668 706.84L619.339 727.494L658.775 688.058L698.212 727.494L718.866 706.84Z" fill="#FFF9EB"/>
<path d="M718.866 626.096L658.775 565.989L598.668 626.096L619.339 646.75L658.775 607.314L698.212 646.75L718.866 626.096Z" fill="#FFF9EB"/>
<path d="M718.866 545.335L658.775 485.245L598.668 545.335L619.339 565.989L658.775 526.569L698.212 565.989L718.866 545.335Z" fill="#FFF9EB"/>
<path d="M718.866 464.59L658.775 404.5L598.668 464.59L619.339 485.244L658.775 445.808L698.212 485.244L718.866 464.59Z" fill="#FFF9EB"/>
<path d="M718.866 383.846L658.775 323.739L598.668 383.846L619.339 404.5L658.775 365.064L698.212 404.5L718.866 383.846Z" fill="#FFF9EB"/>
<path d="M718.866 303.085L658.775 242.995L598.668 303.085L619.339 323.739L658.775 284.319L698.212 323.739L718.866 303.085Z" fill="#FFF9EB"/>
<path d="M718.866 222.341L658.775 162.25L598.668 222.341L619.339 242.995L658.775 203.559L698.212 242.995L718.866 222.341Z" fill="#FFF9EB"/>
<path d="M718.866 141.597L658.775 81.4902L598.668 141.597L619.339 162.251L658.775 122.815L698.212 162.251L718.866 141.597Z" fill="#FFF9EB"/>
<path d="M718.866 60.8355L658.775 0.745117L598.668 60.8355L619.339 81.4895L658.775 42.0696L698.212 81.4895L718.866 60.8355Z" fill="#FFF9EB"/>
<path d="M839.047 21.3991L778.956 81.4895L718.866 21.3991L739.52 0.745117L778.956 40.1815L818.393 0.745117L839.047 21.3991Z" fill="#FFF9EB"/>
<path d="M839.047 102.144L778.956 162.251L718.866 102.144L739.52 81.4902L778.956 120.927L818.393 81.4902L839.047 102.144Z" fill="#FFF9EB"/>
<path d="M839.047 182.905L778.956 242.995L718.866 182.905L739.52 162.25L778.956 201.687L818.393 162.25L839.047 182.905Z" fill="#FFF9EB"/>
<path d="M839.047 263.649L778.956 323.739L718.866 263.649L739.52 242.995L778.956 282.431L818.393 242.995L839.047 263.649Z" fill="#FFF9EB"/>
<path d="M839.047 344.393L778.956 404.5L718.866 344.393L739.52 323.739L778.956 363.176L818.393 323.739L839.047 344.393Z" fill="#FFF9EB"/>
<path d="M839.047 425.154L778.956 485.244L718.866 425.154L739.52 404.5L778.956 443.936L818.393 404.5L839.047 425.154Z" fill="#FFF9EB"/>
<path d="M839.047 505.899L778.956 565.989L718.866 505.899L739.52 485.245L778.956 524.681L818.393 485.245L839.047 505.899Z" fill="#FFF9EB"/>
<path d="M839.047 586.66L778.956 646.75L718.866 586.66L739.52 565.989L778.956 605.426L818.393 565.989L839.047 586.66Z" fill="#FFF9EB"/>
<path d="M839.047 667.404L778.956 727.494L718.866 667.404L739.52 646.75L778.956 686.186L818.393 646.75L839.047 667.404Z" fill="#FFF9EB"/>
<path d="M839.047 748.148L778.956 808.239L718.866 748.148L739.52 727.494L778.956 766.931L818.393 727.494L839.047 748.148Z" fill="#FFF9EB"/>
<path d="M839.047 828.909L778.956 889L718.866 828.909L739.52 808.239L778.956 847.675L818.393 808.239L839.047 828.909Z" fill="#FFF9EB"/>
<path d="M959.244 868.346L899.153 808.239L839.046 868.346L859.717 889L899.153 849.563L938.59 889L959.244 868.346Z" fill="#FFF9EB"/>
<path d="M959.244 787.585L899.153 727.494L839.046 787.585L859.717 808.239L899.153 768.819L938.59 808.239L959.244 787.585Z" fill="#FFF9EB"/>
<path d="M959.244 706.84L899.153 646.75L839.046 706.84L859.717 727.494L899.153 688.058L938.59 727.494L959.244 706.84Z" fill="#FFF9EB"/>
<path d="M959.244 626.096L899.153 565.989L839.046 626.096L859.717 646.75L899.153 607.314L938.59 646.75L959.244 626.096Z" fill="#FFF9EB"/>
<path d="M959.244 545.335L899.153 485.245L839.046 545.335L859.717 565.989L899.153 526.569L938.59 565.989L959.244 545.335Z" fill="#FFF9EB"/>
<path d="M959.244 464.59L899.153 404.5L839.046 464.59L859.717 485.244L899.153 445.808L938.59 485.244L959.244 464.59Z" fill="#FFF9EB"/>
<path d="M959.244 383.846L899.153 323.739L839.046 383.846L859.717 404.5L899.153 365.064L938.59 404.5L959.244 383.846Z" fill="#FFF9EB"/>
<path d="M959.244 303.085L899.153 242.995L839.046 303.085L859.717 323.739L899.153 284.319L938.59 323.739L959.244 303.085Z" fill="#FFF9EB"/>
<path d="M959.244 222.341L899.153 162.25L839.046 222.341L859.717 242.995L899.153 203.559L938.59 242.995L959.244 222.341Z" fill="#FFF9EB"/>
<path d="M959.244 141.597L899.153 81.4902L839.046 141.597L859.717 162.251L899.153 122.815L938.59 162.251L959.244 141.597Z" fill="#FFF9EB"/>
<path d="M959.244 60.8355L899.153 0.745117L839.046 60.8355L859.717 81.4895L899.153 42.0696L938.59 81.4895L959.244 60.8355Z" fill="#FFF9EB"/>
<path d="M1079.42 21.3991L1019.33 81.4895L959.244 21.3991L979.898 0.745117L1019.33 40.1815L1058.77 0.745117L1079.42 21.3991Z" fill="#FFF9EB"/>
<path d="M1079.42 102.144L1019.33 162.251L959.244 102.144L979.898 81.4902L1019.33 120.927L1058.77 81.4902L1079.42 102.144Z" fill="#FFF9EB"/>
<path d="M1079.42 182.905L1019.33 242.995L959.244 182.905L979.898 162.25L1019.33 201.687L1058.77 162.25L1079.42 182.905Z" fill="#FFF9EB"/>
<path d="M1079.42 263.649L1019.33 323.739L959.244 263.649L979.898 242.995L1019.33 282.431L1058.77 242.995L1079.42 263.649Z" fill="#FFF9EB"/>
<path d="M1079.42 344.393L1019.33 404.5L959.244 344.393L979.898 323.739L1019.33 363.176L1058.77 323.739L1079.42 344.393Z" fill="#FFF9EB"/>
<path d="M1079.42 425.154L1019.33 485.244L959.244 425.154L979.898 404.5L1019.33 443.936L1058.77 404.5L1079.42 425.154Z" fill="#FFF9EB"/>
<path d="M1079.42 505.899L1019.33 565.989L959.244 505.899L979.898 485.245L1019.33 524.681L1058.77 485.245L1079.42 505.899Z" fill="#FFF9EB"/>
<path d="M1079.42 586.66L1019.33 646.75L959.244 586.66L979.898 565.989L1019.33 605.426L1058.77 565.989L1079.42 586.66Z" fill="#FFF9EB"/>
<path d="M1079.42 667.404L1019.33 727.494L959.244 667.404L979.898 646.75L1019.33 686.186L1058.77 646.75L1079.42 667.404Z" fill="#FFF9EB"/>
<path d="M1079.42 748.148L1019.33 808.239L959.244 748.148L979.898 727.494L1019.33 766.931L1058.77 727.494L1079.42 748.148Z" fill="#FFF9EB"/>
<path d="M1079.42 828.909L1019.33 889L959.244 828.909L979.898 808.239L1019.33 847.675L1058.77 808.239L1079.42 828.909Z" fill="#FFF9EB"/>
<path d="M1199.62 868.346L1139.53 808.239L1079.42 868.346L1100.1 889L1139.53 849.563L1178.97 889L1199.62 868.346Z" fill="#FFF9EB"/>
<path d="M1199.62 787.585L1139.53 727.494L1079.42 787.585L1100.1 808.239L1139.53 768.819L1178.97 808.239L1199.62 787.585Z" fill="#FFF9EB"/>
<path d="M1199.62 706.84L1139.53 646.75L1079.42 706.84L1100.1 727.494L1139.53 688.058L1178.97 727.494L1199.62 706.84Z" fill="#FFF9EB"/>
<path d="M1199.62 626.096L1139.53 565.989L1079.42 626.096L1100.1 646.75L1139.53 607.314L1178.97 646.75L1199.62 626.096Z" fill="#FFF9EB"/>
<path d="M1199.62 545.335L1139.53 485.245L1079.42 545.335L1100.1 565.989L1139.53 526.569L1178.97 565.989L1199.62 545.335Z" fill="#FFF9EB"/>
<path d="M1199.62 464.59L1139.53 404.5L1079.42 464.59L1100.1 485.244L1139.53 445.808L1178.97 485.244L1199.62 464.59Z" fill="#FFF9EB"/>
<path d="M1199.62 383.846L1139.53 323.739L1079.42 383.846L1100.1 404.5L1139.53 365.064L1178.97 404.5L1199.62 383.846Z" fill="#FFF9EB"/>
<path d="M1199.62 303.085L1139.53 242.995L1079.42 303.085L1100.1 323.739L1139.53 284.319L1178.97 323.739L1199.62 303.085Z" fill="#FFF9EB"/>
<path d="M1199.62 222.341L1139.53 162.25L1079.42 222.341L1100.1 242.995L1139.53 203.559L1178.97 242.995L1199.62 222.341Z" fill="#FFF9EB"/>
<path d="M1199.62 141.597L1139.53 81.4902L1079.42 141.597L1100.1 162.251L1139.53 122.815L1178.97 162.251L1199.62 141.597Z" fill="#FFF9EB"/>
<path d="M1199.62 60.8355L1139.53 0.745117L1079.42 60.8355L1100.1 81.4895L1139.53 42.0696L1178.97 81.4895L1199.62 60.8355Z" fill="#FFF9EB"/>
<path d="M1319.8 21.3991L1259.71 81.4895L1199.62 21.3991L1220.28 0.745117L1259.71 40.1815L1299.15 0.745117L1319.8 21.3991Z" fill="#FFF9EB"/>
<path d="M1319.8 102.144L1259.71 162.251L1199.62 102.144L1220.28 81.4902L1259.71 120.927L1299.15 81.4902L1319.8 102.144Z" fill="#FFF9EB"/>
<path d="M1319.8 182.905L1259.71 242.995L1199.62 182.905L1220.28 162.25L1259.71 201.687L1299.15 162.25L1319.8 182.905Z" fill="#FFF9EB"/>
<path d="M1319.8 263.649L1259.71 323.739L1199.62 263.649L1220.28 242.995L1259.71 282.431L1299.15 242.995L1319.8 263.649Z" fill="#FFF9EB"/>
<path d="M1319.8 344.393L1259.71 404.5L1199.62 344.393L1220.28 323.739L1259.71 363.176L1299.15 323.739L1319.8 344.393Z" fill="#FFF9EB"/>
<path d="M1319.8 425.154L1259.71 485.244L1199.62 425.154L1220.28 404.5L1259.71 443.936L1299.15 404.5L1319.8 425.154Z" fill="#FFF9EB"/>
<path d="M1319.8 505.899L1259.71 565.989L1199.62 505.899L1220.28 485.245L1259.71 524.681L1299.15 485.245L1319.8 505.899Z" fill="#FFF9EB"/>
<path d="M1319.8 586.66L1259.71 646.75L1199.62 586.66L1220.28 565.989L1259.71 605.426L1299.15 565.989L1319.8 586.66Z" fill="#FFF9EB"/>
<path d="M1319.8 667.404L1259.71 727.494L1199.62 667.404L1220.28 646.75L1259.71 686.186L1299.15 646.75L1319.8 667.404Z" fill="#FFF9EB"/>
<path d="M1319.8 748.148L1259.71 808.239L1199.62 748.148L1220.28 727.494L1259.71 766.931L1299.15 727.494L1319.8 748.148Z" fill="#FFF9EB"/>
<path d="M1319.8 828.909L1259.71 889L1199.62 828.909L1220.28 808.239L1259.71 847.675L1299.15 808.239L1319.8 828.909Z" fill="#FFF9EB"/>
<path d="M1440 868.346L1379.91 808.239L1319.8 868.346L1340.47 889L1379.91 849.563L1419.35 889L1440 868.346Z" fill="#FFF9EB"/>
<path d="M1440 787.585L1379.91 727.494L1319.8 787.585L1340.47 808.239L1379.91 768.819L1419.35 808.239L1440 787.585Z" fill="#FFF9EB"/>
<path d="M1440 706.84L1379.91 646.75L1319.8 706.84L1340.47 727.494L1379.91 688.058L1419.35 727.494L1440 706.84Z" fill="#FFF9EB"/>
<path d="M1440 626.096L1379.91 565.989L1319.8 626.096L1340.47 646.75L1379.91 607.314L1419.35 646.75L1440 626.096Z" fill="#FFF9EB"/>
<path d="M1440 545.335L1379.91 485.245L1319.8 545.335L1340.47 565.989L1379.91 526.569L1419.35 565.989L1440 545.335Z" fill="#FFF9EB"/>
<path d="M1440 464.59L1379.91 404.5L1319.8 464.59L1340.47 485.244L1379.91 445.808L1419.35 485.244L1440 464.59Z" fill="#FFF9EB"/>
<path d="M1440 383.846L1379.91 323.739L1319.8 383.846L1340.47 404.5L1379.91 365.064L1419.35 404.5L1440 383.846Z" fill="#FFF9EB"/>
<path d="M1440 303.085L1379.91 242.995L1319.8 303.085L1340.47 323.739L1379.91 284.319L1419.35 323.739L1440 303.085Z" fill="#FFF9EB"/>
<path d="M1440 222.341L1379.91 162.25L1319.8 222.341L1340.47 242.995L1379.91 203.559L1419.35 242.995L1440 222.341Z" fill="#FFF9EB"/>
<path d="M1440 141.597L1379.91 81.4902L1319.8 141.597L1340.47 162.251L1379.91 122.815L1419.35 162.251L1440 141.597Z" fill="#FFF9EB"/>
<path d="M1440 60.8355L1379.91 0.745117L1319.8 60.8355L1340.47 81.4895L1379.91 42.0696L1419.35 81.4895L1440 60.8355Z" fill="#FFF9EB"/>
</svg>
